<mxfile modified="2024-06-08T03:25:19.747Z" host="app.diagrams.net" agent="Mozilla/5.0 (Windows NT 10.0; Win64; x64) AppleWebKit/537.36 (KHTML, like Gecko) Chrome/125.0.0.0 Safari/537.36" etag="i3YlsS1hVKA_wWFzA8qK" version="24.5.2" type="device">
  <diagram id="Ht1M8jgEwFfnCIfOTk4-" name="Page-1">
    <mxGraphModel dx="1274" dy="1134" grid="1" gridSize="10" guides="1" tooltips="1" connect="1" arrows="1" fold="1" page="1" pageScale="1" pageWidth="1169" pageHeight="827" math="0" shadow="0">
      <root>
        <mxCell id="0" />
        <mxCell id="1" parent="0" />
        <mxCell id="SCVMTBWpLvtzJIhz15lM-30" value="Devices" style="outlineConnect=0;gradientColor=none;fontColor=#545B64;strokeColor=none;fillColor=#879196;dashed=0;verticalLabelPosition=bottom;verticalAlign=top;align=center;html=1;fontSize=12;fontStyle=0;aspect=fixed;shape=mxgraph.aws4.illustration_devices;pointerEvents=1" parent="1" vertex="1">
          <mxGeometry x="27.349999999999994" y="300.5" width="118.29" height="86.44" as="geometry" />
        </mxCell>
        <mxCell id="bYx_2s1Rsw5BYX8m_CTW-4" value="AWS API Gateway" style="sketch=0;points=[[0,0,0],[0.25,0,0],[0.5,0,0],[0.75,0,0],[1,0,0],[0,1,0],[0.25,1,0],[0.5,1,0],[0.75,1,0],[1,1,0],[0,0.25,0],[0,0.5,0],[0,0.75,0],[1,0.25,0],[1,0.5,0],[1,0.75,0]];outlineConnect=0;fontColor=#232F3E;fillColor=#8C4FFF;strokeColor=#ffffff;dashed=0;verticalLabelPosition=bottom;verticalAlign=top;align=center;html=1;fontSize=12;fontStyle=0;aspect=fixed;shape=mxgraph.aws4.resourceIcon;resIcon=mxgraph.aws4.api_gateway;" vertex="1" parent="1">
          <mxGeometry x="360" y="305" width="78" height="78" as="geometry" />
        </mxCell>
        <mxCell id="bYx_2s1Rsw5BYX8m_CTW-17" style="edgeStyle=orthogonalEdgeStyle;rounded=0;orthogonalLoop=1;jettySize=auto;html=1;" edge="1" parent="1" source="bYx_2s1Rsw5BYX8m_CTW-7" target="SCVMTBWpLvtzJIhz15lM-30">
          <mxGeometry relative="1" as="geometry" />
        </mxCell>
        <mxCell id="bYx_2s1Rsw5BYX8m_CTW-7" value="AWS Amplify" style="sketch=0;points=[[0,0,0],[0.25,0,0],[0.5,0,0],[0.75,0,0],[1,0,0],[0,1,0],[0.25,1,0],[0.5,1,0],[0.75,1,0],[1,1,0],[0,0.25,0],[0,0.5,0],[0,0.75,0],[1,0.25,0],[1,0.5,0],[1,0.75,0]];outlineConnect=0;fontColor=#232F3E;fillColor=#DD344C;strokeColor=#ffffff;dashed=0;verticalLabelPosition=bottom;verticalAlign=top;align=center;html=1;fontSize=12;fontStyle=0;aspect=fixed;shape=mxgraph.aws4.resourceIcon;resIcon=mxgraph.aws4.amplify;" vertex="1" parent="1">
          <mxGeometry x="200" y="305" width="78" height="78" as="geometry" />
        </mxCell>
        <mxCell id="bYx_2s1Rsw5BYX8m_CTW-8" value="DynamoDB" style="sketch=0;points=[[0,0,0],[0.25,0,0],[0.5,0,0],[0.75,0,0],[1,0,0],[0,1,0],[0.25,1,0],[0.5,1,0],[0.75,1,0],[1,1,0],[0,0.25,0],[0,0.5,0],[0,0.75,0],[1,0.25,0],[1,0.5,0],[1,0.75,0]];outlineConnect=0;fontColor=#232F3E;fillColor=#C925D1;strokeColor=#ffffff;dashed=0;verticalLabelPosition=bottom;verticalAlign=top;align=center;html=1;fontSize=12;fontStyle=0;aspect=fixed;shape=mxgraph.aws4.resourceIcon;resIcon=mxgraph.aws4.dynamodb;" vertex="1" parent="1">
          <mxGeometry x="732" y="175.5" width="78" height="78" as="geometry" />
        </mxCell>
        <mxCell id="bYx_2s1Rsw5BYX8m_CTW-9" value="AWS EC2" style="sketch=0;points=[[0,0,0],[0.25,0,0],[0.5,0,0],[0.75,0,0],[1,0,0],[0,1,0],[0.25,1,0],[0.5,1,0],[0.75,1,0],[1,1,0],[0,0.25,0],[0,0.5,0],[0,0.75,0],[1,0.25,0],[1,0.5,0],[1,0.75,0]];outlineConnect=0;fontColor=#232F3E;fillColor=#ED7100;strokeColor=#ffffff;dashed=0;verticalLabelPosition=bottom;verticalAlign=top;align=center;html=1;fontSize=12;fontStyle=0;aspect=fixed;shape=mxgraph.aws4.resourceIcon;resIcon=mxgraph.aws4.ec2;" vertex="1" parent="1">
          <mxGeometry x="920" y="304.72" width="78" height="78" as="geometry" />
        </mxCell>
        <mxCell id="bYx_2s1Rsw5BYX8m_CTW-12" value="" style="points=[[0,0],[0.25,0],[0.5,0],[0.75,0],[1,0],[1,0.25],[1,0.5],[1,0.75],[1,1],[0.75,1],[0.5,1],[0.25,1],[0,1],[0,0.75],[0,0.5],[0,0.25]];outlineConnect=0;gradientColor=none;html=1;whiteSpace=wrap;fontSize=12;fontStyle=0;container=1;pointerEvents=0;collapsible=0;recursiveResize=0;shape=mxgraph.aws4.group;grIcon=mxgraph.aws4.group_aws_cloud;strokeColor=#232F3E;fillColor=none;verticalAlign=top;align=left;spacingLeft=30;fontColor=#232F3E;dashed=0;" vertex="1" parent="1">
          <mxGeometry x="330" y="160" width="700" height="360" as="geometry" />
        </mxCell>
        <mxCell id="bYx_2s1Rsw5BYX8m_CTW-6" value="AWS CDK" style="sketch=0;points=[[0,0,0],[0.25,0,0],[0.5,0,0],[0.75,0,0],[1,0,0],[0,1,0],[0.25,1,0],[0.5,1,0],[0.75,1,0],[1,1,0],[0,0.25,0],[0,0.5,0],[0,0.75,0],[1,0.25,0],[1,0.5,0],[1,0.75,0]];outlineConnect=0;fontColor=#232F3E;fillColor=#C925D1;strokeColor=#ffffff;dashed=0;verticalLabelPosition=bottom;verticalAlign=top;align=center;html=1;fontSize=12;fontStyle=0;aspect=fixed;shape=mxgraph.aws4.resourceIcon;resIcon=mxgraph.aws4.cloud_development_kit;" vertex="1" parent="bYx_2s1Rsw5BYX8m_CTW-12">
          <mxGeometry width="50" height="50" as="geometry" />
        </mxCell>
        <mxCell id="bYx_2s1Rsw5BYX8m_CTW-13" value="S3" style="sketch=0;points=[[0,0,0],[0.25,0,0],[0.5,0,0],[0.75,0,0],[1,0,0],[0,1,0],[0.25,1,0],[0.5,1,0],[0.75,1,0],[1,1,0],[0,0.25,0],[0,0.5,0],[0,0.75,0],[1,0.25,0],[1,0.5,0],[1,0.75,0]];outlineConnect=0;fontColor=#232F3E;fillColor=#7AA116;strokeColor=#ffffff;dashed=0;verticalLabelPosition=bottom;verticalAlign=top;align=center;html=1;fontSize=12;fontStyle=0;aspect=fixed;shape=mxgraph.aws4.resourceIcon;resIcon=mxgraph.aws4.s3;" vertex="1" parent="1">
          <mxGeometry x="732" y="430" width="78" height="78" as="geometry" />
        </mxCell>
        <mxCell id="bYx_2s1Rsw5BYX8m_CTW-15" value="AWS Lambda" style="sketch=0;points=[[0,0,0],[0.25,0,0],[0.5,0,0],[0.75,0,0],[1,0,0],[0,1,0],[0.25,1,0],[0.5,1,0],[0.75,1,0],[1,1,0],[0,0.25,0],[0,0.5,0],[0,0.75,0],[1,0.25,0],[1,0.5,0],[1,0.75,0]];outlineConnect=0;fontColor=#232F3E;fillColor=#ED7100;strokeColor=#ffffff;dashed=0;verticalLabelPosition=bottom;verticalAlign=top;align=center;html=1;fontSize=12;fontStyle=0;aspect=fixed;shape=mxgraph.aws4.resourceIcon;resIcon=mxgraph.aws4.lambda;" vertex="1" parent="1">
          <mxGeometry x="522" y="305" width="78" height="78" as="geometry" />
        </mxCell>
        <mxCell id="bYx_2s1Rsw5BYX8m_CTW-16" style="edgeStyle=orthogonalEdgeStyle;rounded=0;orthogonalLoop=1;jettySize=auto;html=1;entryX=0;entryY=0.5;entryDx=0;entryDy=0;entryPerimeter=0;" edge="1" parent="1" source="SCVMTBWpLvtzJIhz15lM-30" target="bYx_2s1Rsw5BYX8m_CTW-7">
          <mxGeometry relative="1" as="geometry" />
        </mxCell>
        <mxCell id="bYx_2s1Rsw5BYX8m_CTW-18" style="edgeStyle=orthogonalEdgeStyle;rounded=0;orthogonalLoop=1;jettySize=auto;html=1;entryX=0;entryY=0.5;entryDx=0;entryDy=0;entryPerimeter=0;" edge="1" parent="1" source="bYx_2s1Rsw5BYX8m_CTW-7" target="bYx_2s1Rsw5BYX8m_CTW-4">
          <mxGeometry relative="1" as="geometry" />
        </mxCell>
        <mxCell id="bYx_2s1Rsw5BYX8m_CTW-19" style="edgeStyle=orthogonalEdgeStyle;rounded=0;orthogonalLoop=1;jettySize=auto;html=1;exitX=1;exitY=0.5;exitDx=0;exitDy=0;exitPerimeter=0;entryX=0;entryY=0.5;entryDx=0;entryDy=0;entryPerimeter=0;" edge="1" parent="1" source="bYx_2s1Rsw5BYX8m_CTW-4" target="bYx_2s1Rsw5BYX8m_CTW-15">
          <mxGeometry relative="1" as="geometry" />
        </mxCell>
        <mxCell id="bYx_2s1Rsw5BYX8m_CTW-26" style="edgeStyle=orthogonalEdgeStyle;rounded=0;orthogonalLoop=1;jettySize=auto;html=1;exitX=0.75;exitY=1;exitDx=0;exitDy=0;exitPerimeter=0;entryX=0.5;entryY=1;entryDx=0;entryDy=0;entryPerimeter=0;" edge="1" parent="1" source="bYx_2s1Rsw5BYX8m_CTW-7" target="bYx_2s1Rsw5BYX8m_CTW-15">
          <mxGeometry relative="1" as="geometry">
            <Array as="points">
              <mxPoint x="258" y="440" />
              <mxPoint x="561" y="440" />
            </Array>
          </mxGeometry>
        </mxCell>
        <mxCell id="bYx_2s1Rsw5BYX8m_CTW-27" style="edgeStyle=orthogonalEdgeStyle;rounded=0;orthogonalLoop=1;jettySize=auto;html=1;exitX=0.75;exitY=1;exitDx=0;exitDy=0;exitPerimeter=0;entryX=0.5;entryY=1;entryDx=0;entryDy=0;entryPerimeter=0;" edge="1" parent="1" source="bYx_2s1Rsw5BYX8m_CTW-15" target="bYx_2s1Rsw5BYX8m_CTW-7">
          <mxGeometry relative="1" as="geometry">
            <Array as="points">
              <mxPoint x="580" y="460" />
              <mxPoint x="239" y="460" />
            </Array>
          </mxGeometry>
        </mxCell>
        <mxCell id="bYx_2s1Rsw5BYX8m_CTW-28" style="edgeStyle=orthogonalEdgeStyle;rounded=0;orthogonalLoop=1;jettySize=auto;html=1;exitX=0.25;exitY=1;exitDx=0;exitDy=0;exitPerimeter=0;entryX=0;entryY=0.5;entryDx=0;entryDy=0;entryPerimeter=0;" edge="1" parent="1" source="bYx_2s1Rsw5BYX8m_CTW-7" target="bYx_2s1Rsw5BYX8m_CTW-13">
          <mxGeometry relative="1" as="geometry">
            <Array as="points">
              <mxPoint x="220" y="480" />
              <mxPoint x="732" y="480" />
            </Array>
          </mxGeometry>
        </mxCell>
        <mxCell id="-QjtrjUzRDEMRZ5MF8oH-9" value="&lt;font style=&quot;font-weight: normal; font-size: 14px;&quot;&gt;1. S3 with pre-signed URL&lt;/font&gt;" style="rounded=1;whiteSpace=wrap;html=1;fontStyle=1;fontSize=22;" parent="1" vertex="1">
          <mxGeometry x="277.5" y="433.5" width="185" height="65" as="geometry" />
        </mxCell>
        <mxCell id="bYx_2s1Rsw5BYX8m_CTW-31" style="edgeStyle=orthogonalEdgeStyle;rounded=0;orthogonalLoop=1;jettySize=auto;html=1;exitX=0.5;exitY=1;exitDx=0;exitDy=0;exitPerimeter=0;entryX=1;entryY=0.25;entryDx=0;entryDy=0;entryPerimeter=0;" edge="1" parent="1" source="bYx_2s1Rsw5BYX8m_CTW-8" target="bYx_2s1Rsw5BYX8m_CTW-15">
          <mxGeometry relative="1" as="geometry" />
        </mxCell>
        <mxCell id="bYx_2s1Rsw5BYX8m_CTW-35" style="edgeStyle=orthogonalEdgeStyle;rounded=0;orthogonalLoop=1;jettySize=auto;html=1;exitX=1;exitY=0.5;exitDx=0;exitDy=0;exitPerimeter=0;entryX=0;entryY=0.5;entryDx=0;entryDy=0;entryPerimeter=0;" edge="1" parent="1" source="bYx_2s1Rsw5BYX8m_CTW-33" target="bYx_2s1Rsw5BYX8m_CTW-9">
          <mxGeometry relative="1" as="geometry" />
        </mxCell>
        <mxCell id="bYx_2s1Rsw5BYX8m_CTW-38" value="" style="points=[[0,0],[0.25,0],[0.5,0],[0.75,0],[1,0],[1,0.25],[1,0.5],[1,0.75],[1,1],[0.75,1],[0.5,1],[0.25,1],[0,1],[0,0.75],[0,0.5],[0,0.25]];outlineConnect=0;gradientColor=none;html=1;whiteSpace=wrap;fontSize=12;fontStyle=0;container=1;pointerEvents=0;collapsible=0;recursiveResize=0;shape=mxgraph.aws4.group;grIcon=mxgraph.aws4.group_aws_cloud;strokeColor=#232F3E;fillColor=none;verticalAlign=top;align=left;spacingLeft=30;fontColor=#232F3E;dashed=0;" vertex="1" parent="1">
          <mxGeometry x="471" y="253.50000000000003" width="180" height="180" as="geometry" />
        </mxCell>
        <mxCell id="bYx_2s1Rsw5BYX8m_CTW-36" value="AWS SDK" style="sketch=0;points=[[0,0,0],[0.25,0,0],[0.5,0,0],[0.75,0,0],[1,0,0],[0,1,0],[0.25,1,0],[0.5,1,0],[0.75,1,0],[1,1,0],[0,0.25,0],[0,0.5,0],[0,0.75,0],[1,0.25,0],[1,0.5,0],[1,0.75,0]];outlineConnect=0;fontColor=#232F3E;fillColor=#C925D1;strokeColor=#ffffff;dashed=0;verticalLabelPosition=bottom;verticalAlign=top;align=center;html=1;fontSize=12;fontStyle=0;aspect=fixed;shape=mxgraph.aws4.resourceIcon;resIcon=mxgraph.aws4.tools_and_sdks;" vertex="1" parent="bYx_2s1Rsw5BYX8m_CTW-38">
          <mxGeometry width="50" height="50" as="geometry" />
        </mxCell>
        <mxCell id="bYx_2s1Rsw5BYX8m_CTW-39" value="" style="edgeStyle=orthogonalEdgeStyle;rounded=0;orthogonalLoop=1;jettySize=auto;html=1;exitX=1;exitY=0.5;exitDx=0;exitDy=0;exitPerimeter=0;entryX=0;entryY=0.5;entryDx=0;entryDy=0;entryPerimeter=0;" edge="1" parent="1" source="bYx_2s1Rsw5BYX8m_CTW-15" target="bYx_2s1Rsw5BYX8m_CTW-33">
          <mxGeometry relative="1" as="geometry">
            <mxPoint x="600" y="344" as="sourcePoint" />
            <mxPoint x="920" y="344" as="targetPoint" />
          </mxGeometry>
        </mxCell>
        <mxCell id="bYx_2s1Rsw5BYX8m_CTW-33" value="&lt;font style=&quot;font-weight: normal; font-size: 14px;&quot;&gt;3. Control EC2 triggered by DynamoDB Stream Event&lt;/font&gt;" style="rounded=1;whiteSpace=wrap;html=1;fontStyle=1;fontSize=22;" vertex="1" parent="1">
          <mxGeometry x="678.5" y="311.22" width="185" height="65" as="geometry" />
        </mxCell>
        <mxCell id="bYx_2s1Rsw5BYX8m_CTW-48" style="edgeStyle=orthogonalEdgeStyle;rounded=0;orthogonalLoop=1;jettySize=auto;html=1;exitX=0.5;exitY=0;exitDx=0;exitDy=0;exitPerimeter=0;entryX=0;entryY=0.5;entryDx=0;entryDy=0;entryPerimeter=0;" edge="1" parent="1" source="bYx_2s1Rsw5BYX8m_CTW-15" target="bYx_2s1Rsw5BYX8m_CTW-8">
          <mxGeometry relative="1" as="geometry" />
        </mxCell>
        <mxCell id="bYx_2s1Rsw5BYX8m_CTW-29" value="&lt;font style=&quot;font-weight: normal; font-size: 14px;&quot;&gt;2. Metadata to DynamoDB&lt;/font&gt;" style="rounded=1;whiteSpace=wrap;html=1;fontStyle=1;fontSize=22;" vertex="1" parent="1">
          <mxGeometry x="522" y="192" width="185" height="45" as="geometry" />
        </mxCell>
      </root>
    </mxGraphModel>
  </diagram>
</mxfile>
